<svg xmlns="http://www.w3.org/2000/svg" viewBox="0 0 480 280">
  <defs>
    <linearGradient id="bg" x1="0" y1="0" x2="1" y2="1"><stop offset="0%" stop-color="#2f1630"/><stop offset="100%" stop-color="#5a2845"/></linearGradient>
    <linearGradient id="glass" x1="0" y1="0" x2="1" y2="1"><stop offset="0%" stop-color="#ffd7e7" stop-opacity="0.95"/><stop offset="100%" stop-color="#ffc89e" stop-opacity="0.85"/></linearGradient>
  </defs>
  <rect width="480" height="280" rx="28" fill="url(#bg)"/>
  <circle cx="390" cy="56" r="42" fill="#ffffff" opacity="0.08"/>
  <rect x="42" y="44" width="170" height="192" rx="24" fill="#ffffff" opacity="0.08"/>
  <rect x="58" y="60" width="138" height="160" rx="20" fill="url(#glass)"/>
  <rect x="82" y="84" width="90" height="16" rx="8" fill="#ffffff" opacity="0.7"/>
  <rect x="82" y="112" width="72" height="72" rx="18" fill="#ff9ab5" opacity="0.55"/>
  <rect x="236" y="68" width="182" height="18" rx="9" fill="#fff0f6" opacity="0.92"/>
  <rect x="236" y="100" width="156" height="12" rx="6" fill="#ffd4df" opacity="0.8"/>
  <rect x="236" y="124" width="176" height="12" rx="6" fill="#ffd4df" opacity="0.8"/>
  <rect x="236" y="160" width="116" height="44" rx="22" fill="#fbd0df" opacity="0.86"/>
  <circle cx="377" cy="182" r="24" fill="#ffe7a8" opacity="0.95"/>
  <path d="M286 194c20-36 58-46 97-26" stroke="#fff2e8" stroke-width="6" fill="none" stroke-linecap="round"/>
</svg>
