<svg xmlns="http://www.w3.org/2000/svg" viewBox="0 0 128 128">
  <defs><linearGradient id="bg" x1="0" y1="0" x2="1" y2="1"><stop offset="0%" stop-color="#f7d78d"/><stop offset="100%" stop-color="#a6d78e"/></linearGradient></defs>
  <rect width="128" height="128" rx="32" fill="url(#bg)"/>
  <circle cx="64" cy="48" r="23" fill="#fff2de"/>
  <path d="M36 107c4-18 16-31 28-31s24 13 28 31" fill="#5d6f38"/>
  <path d="M37 44c6-16 16-25 27-25 11 0 23 8 27 25-6-6-18-10-27-10s-20 4-27 10z" fill="#4f4337"/>
  <path d="M51 60c4 5 8 8 13 8 6 0 11-3 15-8" stroke="#a88260" stroke-width="3" fill="none" stroke-linecap="round"/>
  <path d="M49 73c3 9 9 14 15 14s12-5 15-14" stroke="#f4f0e8" stroke-width="8" fill="none" stroke-linecap="round"/>
</svg>
