<svg xmlns="http://www.w3.org/2000/svg" viewBox="0 0 128 128">
  <defs><linearGradient id="bg" x1="0" y1="0" x2="1" y2="1"><stop offset="0%" stop-color="#ffe9b0"/><stop offset="100%" stop-color="#8fe1c3"/></linearGradient></defs>
  <rect width="128" height="128" rx="32" fill="url(#bg)"/>
  <circle cx="64" cy="48" r="22" fill="#fff2e5"/>
  <path d="M32 108c8-18 20-30 32-30s24 12 32 30" fill="#7bb596"/>
  <path d="M36 45c6-17 17-27 28-27 11 0 23 9 28 27-7-4-15-6-28-6s-21 2-28 6z" fill="#58483e"/>
  <path d="M85 83c-9 5-18 7-27 7-9 0-17-2-24-7" stroke="#fff6e1" stroke-width="5" fill="none" stroke-linecap="round"/>
</svg>
